<svg xmlns="http://www.w3.org/2000/svg" width="20" height="159.001" viewBox="0 0 20 159.001">
  <defs>
    <style>
      .cls-1 {
        fill-rule: evenodd;
      }
    </style>
  </defs>
  <path id="ico-copyright.svg" class="cls-1" d="M3070.68,961.53a4.551,4.551,0,0,0-.16.624,0.425,0.425,0,0,0,.08.261,0.4,0.4,0,0,0,.24.172v0.2l-2.23.091v-0.224a3.251,3.251,0,0,0,1.07-.509,1.949,1.949,0,0,0,.77-1.614,2.04,2.04,0,0,0-.83-1.673,3.586,3.586,0,0,0-2.27-.649,3.131,3.131,0,0,0-2.12.682,2.181,2.181,0,0,0-.79,1.731,2.788,2.788,0,0,0,.36,1.394,4.3,4.3,0,0,0,.63.805l-0.18.18a3.233,3.233,0,0,1-.73-0.8,3.161,3.161,0,0,1-.54-1.776,3.2,3.2,0,0,1,1.03-2.493,3.4,3.4,0,0,1,2.36-.852,3.446,3.446,0,0,1,2.43.9,3.189,3.189,0,0,1,1.04,2.465A3.8,3.8,0,0,1,3070.68,961.53Zm-2.65,2.658a1.978,1.978,0,0,1,.67,1.549,2.1,2.1,0,0,1-.63,1.562,2.3,2.3,0,0,1-1.68.618,2.545,2.545,0,0,1-1.68-.6,1.945,1.945,0,0,1-.71-1.551,2.045,2.045,0,0,1,.68-1.547,2.442,2.442,0,0,1,1.72-.633A2.342,2.342,0,0,1,3068.03,964.188Zm0.13,0.76a2.04,2.04,0,0,0-1.53-.477,3.492,3.492,0,0,0-1.61.384,1.166,1.166,0,0,0-.74,1.066,0.9,0.9,0,0,0,.49.823,2.627,2.627,0,0,0,1.31.288,3.567,3.567,0,0,0,1.59-.368,1.154,1.154,0,0,0,.74-1.063A0.974,0.974,0,0,0,3068.16,964.948Zm-6.01,3.312a0.761,0.761,0,0,0,.19.564,0.878,0.878,0,0,0,.52.121h4.66a0.83,0.83,0,0,0,.47-0.088,0.419,0.419,0,0,0,.1-0.331v-0.1c-0.01-.031-0.01-0.074-0.02-0.131h0.16l0.15,0.452q0,0.024.33,0.956a0.03,0.03,0,0,1-.02.036,0.088,0.088,0,0,1-.05.012h-0.65a3.421,3.421,0,0,1,.47.552,1.633,1.633,0,0,1,.27.881,1.428,1.428,0,0,1-.57,1.13,2.362,2.362,0,0,1-1.55.473,2.921,2.921,0,0,1-1.76-.568,1.7,1.7,0,0,1-.79-1.431,1.331,1.331,0,0,1,.44-1.023h-1.59a0.749,0.749,0,0,0-.6.157,1.411,1.411,0,0,0-.15.686h-0.17V968.26h0.16Zm2.4,1.877a1.092,1.092,0,0,0-.16.578,1.07,1.07,0,0,0,.52.878,2.5,2.5,0,0,0,1.45.365,2.023,2.023,0,0,0,1.34-.379,1.141,1.141,0,0,0,.44-0.878,1.084,1.084,0,0,0-.22-0.643,0.61,0.61,0,0,0-.44-0.29h-2.43A1.009,1.009,0,0,0,3064.55,970.137Zm4.06,3.082v2.008h-0.14a1.4,1.4,0,0,0-.04-0.352,0.266,0.266,0,0,0-.26-0.219,0.447,0.447,0,0,0-.14.024,1.884,1.884,0,0,0-.21.086l-2.43,1.1,2.45,0.907a1.29,1.29,0,0,0,.17.045,1.2,1.2,0,0,0,.19.031,0.214,0.214,0,0,0,.19-0.085,0.473,0.473,0,0,0,.07-0.22l0.01-.147h0.14v1.309h-0.14a0.441,0.441,0,0,0-.14-0.293,1.013,1.013,0,0,0-.32-0.169l-4.05-1.5a6.229,6.229,0,0,1-1.51-.748,1.074,1.074,0,0,1-.47-0.9,0.978,0.978,0,0,1,.13-0.5,0.468,0.468,0,0,1,.43-0.233,0.405,0.405,0,0,1,.32.139,0.517,0.517,0,0,1,.12.35,1.172,1.172,0,0,1-.09.365,1.158,1.158,0,0,0-.09.345,0.9,0.9,0,0,0,.66.555,2.925,2.925,0,0,0,.87.291,0.45,0.45,0,0,0,.1-0.014,0.518,0.518,0,0,0,.11-0.031l3.31-1.5a1.513,1.513,0,0,0,.47-0.283,0.6,0.6,0,0,0,.15-0.359h0.14Zm-4.3,4.782a1.163,1.163,0,0,0,.16.581,0.655,0.655,0,0,0,.5.143h2.19a1.956,1.956,0,0,0,.69-0.088,0.313,0.313,0,0,0,.2-0.321,0.641,0.641,0,0,0-.01-0.127c-0.01-.052-0.02-0.107-0.03-0.164h0.16c0.07,0.18.13,0.366,0.2,0.555s0.12,0.322.14,0.394q0.1,0.239.21,0.489c0,0.022,0,.035-0.02.04a0.451,0.451,0,0,1-.1.007h-0.8a4,4,0,0,1,.68.59,0.9,0.9,0,0,1,.24.589,0.54,0.54,0,0,1-.15.4,0.493,0.493,0,0,1-.37.153,0.532,0.532,0,0,1-.34-0.117,0.364,0.364,0,0,1-.13-0.292,0.557,0.557,0,0,1,.17-0.364,0.539,0.539,0,0,0,.17-0.288,0.635,0.635,0,0,0-.28-0.41,0.842,0.842,0,0,0-.56-0.242h-2.19a0.733,0.733,0,0,0-.58.19,0.915,0.915,0,0,0-.15.633h-0.16V978h0.16Zm-0.02,3.394a1.247,1.247,0,0,0,.17.643,1.131,1.131,0,0,0,.7.133h2.31a1.506,1.506,0,0,0,.44-0.043,0.291,0.291,0,0,0,.2-0.3c0-.035-0.01-0.069-0.01-0.1s-0.03-.128-0.08-0.287h0.15l0.07,0.2q0.27,0.834.42,1.162a0.9,0.9,0,0,1,.05.171,0.2,0.2,0,0,1-.07.009h-3.48a1.193,1.193,0,0,0-.7.131,0.967,0.967,0,0,0-.17.593h-0.14V981.4h0.14Zm6.48,0.756a0.5,0.5,0,0,1-.36.848,0.5,0.5,0,0,1-.35-0.145,0.487,0.487,0,0,1,0-.7,0.5,0.5,0,0,1,.35-0.142A0.5,0.5,0,0,1,3070.77,982.151Zm-4.47,2.663a1.525,1.525,0,0,1,.84-0.24,1.6,1.6,0,0,1,1.07.443,1.569,1.569,0,0,1,.51,1.252,2.1,2.1,0,0,1-.16.766,2.012,2.012,0,0,0-.17.8c0,0.067,0,.168.01,0.3v0.349h-0.39v-0.823c-0.14.057-.25,0.1-0.35,0.134a2.013,2.013,0,0,1-.54.08,1.419,1.419,0,0,1-1.01-.45,1.608,1.608,0,0,1-.47-1.211,3.9,3.9,0,0,1,.05-0.428,0.623,0.623,0,0,0-.24-0.367,0.664,0.664,0,0,0-.39-0.228,0.337,0.337,0,0,0-.23.334,2.4,2.4,0,0,0-.05.486,6.145,6.145,0,0,1-.14,1.663,0.933,0.933,0,0,1-.98.72,1.374,1.374,0,0,1-1.22-.84,3.561,3.561,0,0,1-.45-1.7,2.074,2.074,0,0,1,.32-1.237,0.867,0.867,0,0,1,.67-0.457,0.592,0.592,0,0,1,.35.12,4.3,4.3,0,0,1,.49.478l0.29,0.312,0.06,0.057a1.318,1.318,0,0,1,.17-0.326,0.426,0.426,0,0,1,.34-0.189,0.7,0.7,0,0,1,.4.164,6.466,6.466,0,0,1,.7.7A1.262,1.262,0,0,1,3066.3,984.814Zm-3.61.5a3.246,3.246,0,0,0-.16,1.03,2.672,2.672,0,0,0,.28,1.286,0.814,0.814,0,0,0,.69.5,0.44,0.44,0,0,0,.43-0.4,4.536,4.536,0,0,0,.07-0.939c0.01-.118.01-0.242,0.02-0.372s0.01-.25.01-0.358c0.01-.07.02-0.183,0.04-0.339a3.056,3.056,0,0,1,.06-0.348,0.828,0.828,0,0,0-.31-0.278,0.966,0.966,0,0,0-.57-0.226A0.568,0.568,0,0,0,3062.69,985.319Zm3.33,1.511a1,1,0,0,0,.81.286,2.852,2.852,0,0,0,1.04-.231,0.8,0.8,0,0,0,.58-0.768,0.641,0.641,0,0,0-.45-0.643,1.7,1.7,0,0,0-.59-0.09,2,2,0,0,0-1.06.281,0.818,0.818,0,0,0-.47.728A0.643,0.643,0,0,0,3066.02,986.83Zm-1.73,2.042a0.829,0.829,0,0,0,.19.512,1.209,1.209,0,0,0,.68.121h4.66a0.9,0.9,0,0,0,.4-0.069,0.363,0.363,0,0,0,.12-0.335V989c-0.01-.033-0.01-0.07-0.02-0.112h0.17c0.05,0.14.1,0.312,0.16,0.517s0.1,0.347.13,0.426l0.14,0.456-0.03.01h-2.98a3.229,3.229,0,0,1,.51.533,1.512,1.512,0,0,1,.29.9,1.042,1.042,0,0,1-.66,1.051,2.261,2.261,0,0,1-.91.153h-1.98a1.264,1.264,0,0,0-.67.116,0.705,0.705,0,0,0-.2.478h-0.14V991.47h0.14a0.86,0.86,0,0,0,.19.534,1.232,1.232,0,0,0,.68.119h1.96a1.588,1.588,0,0,0,.76-0.155,0.594,0.594,0,0,0,.3-0.583,1.174,1.174,0,0,0-.28-0.719,0.967,0.967,0,0,0-.35-0.347h-2.39a1.172,1.172,0,0,0-.68.123,0.866,0.866,0,0,0-.19.529h-0.14v-2.1h0.14Zm4.33,7.268h-0.35v-0.972l-2.79-.009a1.926,1.926,0,0,0-.56.062,0.44,0.44,0,0,0-.33.447,0.49,0.49,0,0,0,.08.3,1.36,1.36,0,0,0,.26.289l-0.11.123-0.14-.1a1.452,1.452,0,0,1-.48-0.523,1.1,1.1,0,0,1-.14-0.533,0.749,0.749,0,0,1,.51-0.761,2.114,2.114,0,0,1,.76-0.11h2.94v-0.518a0.133,0.133,0,0,1,.03-0.037,0.062,0.062,0,0,1,.04-0.011,0.137,0.137,0,0,1,.08.022c0.01,0.013.05,0.059,0.12,0.135a3.507,3.507,0,0,0,.45.474c0.11,0.1.42,0.324,0.91,0.682a0.376,0.376,0,0,1-.01.074,0.121,0.121,0,0,1-.07.012h-1.2v0.962Zm-4.43,1.432a0.552,0.552,0,0,1,.4-0.157,0.54,0.54,0,0,1,0,1.08,0.558,0.558,0,0,1-.4-0.154,0.54,0.54,0,0,1-.16-0.384A0.546,0.546,0,0,1,3064.19,997.572Zm4.43,6.148h-0.35v-0.97l-2.79-.01a1.975,1.975,0,0,0-.56.06,0.448,0.448,0,0,0-.33.45,0.521,0.521,0,0,0,.08.3,1.279,1.279,0,0,0,.26.28l-0.11.13-0.14-.11a1.445,1.445,0,0,1-.48-0.52,1.079,1.079,0,0,1-.14-0.53,0.741,0.741,0,0,1,.51-0.76,1.97,1.97,0,0,1,.76-0.11h2.94v-0.52a0.138,0.138,0,0,1,.03-0.04,0.048,0.048,0,0,1,.04-0.01,0.188,0.188,0,0,1,.08.02,1.537,1.537,0,0,0,.12.14,3.49,3.49,0,0,0,.45.47c0.11,0.1.42,0.33,0.91,0.68a0.538,0.538,0,0,1-.01.08,0.11,0.11,0,0,1-.07.01h-1.2v0.96Zm-0.59,1.08a1.979,1.979,0,0,1,.67,1.55,2.087,2.087,0,0,1-.63,1.56,2.3,2.3,0,0,1-1.68.62,2.545,2.545,0,0,1-1.68-.6,1.95,1.95,0,0,1-.71-1.55,2.047,2.047,0,0,1,.68-1.55,2.449,2.449,0,0,1,1.72-.63A2.345,2.345,0,0,1,3068.03,1004.8Zm0.13,0.76a2.032,2.032,0,0,0-1.53-.48,3.449,3.449,0,0,0-1.61.39,1.156,1.156,0,0,0-.74,1.06,0.89,0.89,0,0,0,.49.82,2.543,2.543,0,0,0,1.31.29,3.628,3.628,0,0,0,1.59-.36,1.164,1.164,0,0,0,.74-1.07A0.959,0.959,0,0,0,3068.16,1005.56Zm0.07,6.67a1.764,1.764,0,0,1-1.35.51v-3.03a2.608,2.608,0,0,0-1.63.5,1.387,1.387,0,0,0-.51,1.07,1.325,1.325,0,0,0,.26.85,2.742,2.742,0,0,0,.76.63l-0.06.17a2.844,2.844,0,0,1-1.14-.73,1.826,1.826,0,0,1-.53-1.32,1.6,1.6,0,0,1,.69-1.38,2.723,2.723,0,0,1,1.59-.49,2.589,2.589,0,0,1,1.68.57,1.809,1.809,0,0,1,.71,1.47A1.7,1.7,0,0,1,3068.23,1012.23Zm-0.37-2.28a2.223,2.223,0,0,0-.66-0.22v2.01a2.076,2.076,0,0,0,.72-0.18,0.837,0.837,0,0,0,.43-0.78A0.923,0.923,0,0,0,3067.86,1009.95Zm3,7.77v0.48l-6.88-2.11v-0.48Zm-6.53,3.12a1.257,1.257,0,0,0,.28.78,1.916,1.916,0,0,0,1,.17h4.04a1.042,1.042,0,0,0,.7-0.17,1.327,1.327,0,0,0,.19-0.76h0.18v1.93l-4.95,2.23,4.95,2.19v1.94h-0.18a1.2,1.2,0,0,0-.2-0.7,1.019,1.019,0,0,0-.69-0.16h-4.42a1.033,1.033,0,0,0-.7.16,1.284,1.284,0,0,0-.2.7h-0.18v-2.73h0.18a1.208,1.208,0,0,0,.22.73,1.355,1.355,0,0,0,.8.15h4.46l-5.66-2.5v-0.13l5.42-2.45h-3.96a1.633,1.633,0,0,0-1.06.23,1.155,1.155,0,0,0-.22.68h-0.18v-2.29h0.18Zm1.96,9.6a10.931,10.931,0,0,1,.79,1.75h0.41a1.828,1.828,0,0,0,.69-0.09,0.681,0.681,0,0,0,.33-0.67,0.977,0.977,0,0,0-.13-0.47,0.421,0.421,0,0,0-.36-0.22,1.189,1.189,0,0,0-.2.03c-0.09.01-.15,0.02-0.17,0.02a0.421,0.421,0,0,1-.38-0.17,0.475,0.475,0,0,1-.06-0.24,0.392,0.392,0,0,1,.14-0.33,0.463,0.463,0,0,1,.32-0.11,1.007,1.007,0,0,1,.71.41,1.757,1.757,0,0,1,.37,1.2,1.312,1.312,0,0,1-.61,1.26,2.3,2.3,0,0,1-.98.17h-1.94a1.166,1.166,0,0,0-.39.04,0.248,0.248,0,0,0-.19.26,0.484,0.484,0,0,0,.03.18,2.82,2.82,0,0,0,.17.25h-0.25a1.876,1.876,0,0,1-.31-0.33,0.917,0.917,0,0,1-.19-0.55,0.512,0.512,0,0,1,.21-0.46,0.991,0.991,0,0,1,.51-0.16,5.057,5.057,0,0,1-.47-0.62,1.572,1.572,0,0,1-.26-0.83,0.929,0.929,0,0,1,.29-0.7,0.959,0.959,0,0,1,.74-0.3A1.391,1.391,0,0,1,3066.29,1030.44Zm0.55,1.75a4.783,4.783,0,0,0-.41-0.9,1.211,1.211,0,0,0-.98-0.69,0.749,0.749,0,0,0-.65.29,0.677,0.677,0,0,0-.14.41,1.106,1.106,0,0,0,.18.6,0.514,0.514,0,0,0,.46.29h1.54Zm1.57,4.98a0.851,0.851,0,0,1-.68.43,0.43,0.43,0,0,1-.3-0.11,0.4,0.4,0,0,1-.14-0.33,0.441,0.441,0,0,1,.12-0.3,0.732,0.732,0,0,1,.34-0.18l0.23-.06a0.638,0.638,0,0,0,.37-0.21,0.84,0.84,0,0,0,.1-0.42,1.1,1.1,0,0,0-.49-0.91,2.031,2.031,0,0,0-1.28-.38,2.208,2.208,0,0,0-1.32.42,1.275,1.275,0,0,0-.58,1.11,1.32,1.32,0,0,0,.33.88,3.427,3.427,0,0,0,.6.49l-0.08.14a3.654,3.654,0,0,1-.92-0.57,1.731,1.731,0,0,1-.65-1.34,1.79,1.79,0,0,1,.59-1.31,2.255,2.255,0,0,1,1.62-.57,2.585,2.585,0,0,1,1.73.62,2,2,0,0,1,.72,1.58A1.669,1.669,0,0,1,3068.41,1037.17Zm-4.12.97a0.819,0.819,0,0,0,.19.51,1.22,1.22,0,0,0,.68.12h4.66a0.843,0.843,0,0,0,.4-0.07,0.374,0.374,0,0,0,.12-0.34v-0.1c-0.01-.03-0.01-0.07-0.02-0.11h0.17c0.05,0.14.1,0.31,0.16,0.52s0.1,0.34.13,0.42l0.14,0.46-0.03.01h-2.98a3.44,3.44,0,0,1,.51.53,1.516,1.516,0,0,1,.29.91,1.046,1.046,0,0,1-.66,1.05,2.3,2.3,0,0,1-.91.15h-1.98a1.225,1.225,0,0,0-.67.12,0.7,0.7,0,0,0-.2.48h-0.14v-2.07h0.14a0.87,0.87,0,0,0,.19.54,1.22,1.22,0,0,0,.68.12h1.96a1.506,1.506,0,0,0,.76-0.16,0.583,0.583,0,0,0,.3-0.58,1.167,1.167,0,0,0-.28-0.72,1,1,0,0,0-.35-0.35h-2.39a1.1,1.1,0,0,0-.68.13,0.862,0.862,0,0,0-.19.53h-0.14v-2.1h0.14Zm4.35,6.29h-3.1a1.3,1.3,0,0,0-.53.09,0.657,0.657,0,0,0-.37.65,1.028,1.028,0,0,0,.22.63,1.8,1.8,0,0,0,.33.36h2.66a0.65,0.65,0,0,0,.49-0.14,1.108,1.108,0,0,0,.14-0.57h0.16v1.53h-3.41a0.47,0.47,0,0,0-.57.61h-0.13c-0.05-.17-0.09-0.3-0.11-0.38s-0.07-.22-0.13-0.42q-0.045-.12-0.21-0.54c0-.02,0-0.02.02-0.03h0.83a3.15,3.15,0,0,1-.58-0.59,1.415,1.415,0,0,1-.29-0.86,1.154,1.154,0,0,1,1.29-1.15h2.52a0.684,0.684,0,0,0,.52-0.16,1.138,1.138,0,0,0,.12-0.45h0.13v1.42Zm-4.31,3.52a1.051,1.051,0,0,0,.23.7,1.406,1.406,0,0,0,.78.14h4.31a1,1,0,0,0,.68-0.16,1.1,1.1,0,0,0,.21-0.68h0.18v2.57a3.119,3.119,0,0,1-.49,1.9,1.515,1.515,0,0,1-1.29.66,1.629,1.629,0,0,1-1.47-.73,3.447,3.447,0,0,1-.45-1.83v-0.4c0.01-.16.01-0.28,0.01-0.36h-1.8a1,1,0,0,0-.71.17,1.5,1.5,0,0,0-.19.75h-0.18v-2.73h0.18Zm5.84,3.29a2.588,2.588,0,0,0,.18-1.04,0.668,0.668,0,0,0-.06-0.37,0.35,0.35,0,0,0-.27-0.07h-2.59c-0.01.17-.02,0.29-0.03,0.34v0.16a2.318,2.318,0,0,0,.19,1.05,1.349,1.349,0,0,0,1.33.7A1.239,1.239,0,0,0,3070.17,1051.24Zm-5.88,2.17a1.236,1.236,0,0,0,.17.64,1.13,1.13,0,0,0,.7.13h2.31a1.5,1.5,0,0,0,.44-0.04,0.3,0.3,0,0,0,.2-0.3c0-.03-0.01-0.07-0.01-0.1s-0.03-.13-0.08-0.29h0.15l0.07,0.21c0.18,0.55.32,0.94,0.42,1.16a0.817,0.817,0,0,1,.05.17,0.148,0.148,0,0,1-.07.01h-3.48a1.171,1.171,0,0,0-.7.13,0.953,0.953,0,0,0-.17.59h-0.14v-2.31h0.14Zm6.48,0.76a0.454,0.454,0,0,1,.15.35,0.5,0.5,0,0,1-.51.49,0.518,0.518,0,0,1-.35-0.14,0.485,0.485,0,0,1-.15-0.35,0.454,0.454,0,0,1,.15-0.35,0.485,0.485,0,0,1,.35-0.15A0.491,0.491,0,0,1,3070.77,1054.17Zm-2.36,5.21a0.876,0.876,0,0,1-.68.43,0.482,0.482,0,0,1-.3-0.11,0.429,0.429,0,0,1-.14-0.34,0.4,0.4,0,0,1,.12-0.29,0.661,0.661,0,0,1,.34-0.19l0.23-.05a0.706,0.706,0,0,0,.37-0.22,0.8,0.8,0,0,0,.1-0.41,1.119,1.119,0,0,0-.49-0.92,2.028,2.028,0,0,0-1.28-.37,2.2,2.2,0,0,0-1.32.41,1.275,1.275,0,0,0-.58,1.11,1.32,1.32,0,0,0,.33.88,3.407,3.407,0,0,0,.6.5l-0.08.13a3.654,3.654,0,0,1-.92-0.57,1.731,1.731,0,0,1-.65-1.34,1.79,1.79,0,0,1,.59-1.31,2.255,2.255,0,0,1,1.62-.57,2.585,2.585,0,0,1,1.73.62,2,2,0,0,1,.72,1.58A1.7,1.7,0,0,1,3068.41,1059.38Zm0,4.32a0.851,0.851,0,0,1-.68.43,0.43,0.43,0,0,1-.3-0.11,0.4,0.4,0,0,1-.14-0.34,0.418,0.418,0,0,1,.12-0.29,0.732,0.732,0,0,1,.34-0.18l0.23-.06a0.638,0.638,0,0,0,.37-0.21,0.868,0.868,0,0,0,.1-0.42,1.1,1.1,0,0,0-.49-0.91,2.031,2.031,0,0,0-1.28-.38,2.208,2.208,0,0,0-1.32.42,1.275,1.275,0,0,0-.58,1.11,1.32,1.32,0,0,0,.33.88,3.427,3.427,0,0,0,.6.49l-0.08.14a3.96,3.96,0,0,1-.92-0.58,1.7,1.7,0,0,1-.65-1.33,1.79,1.79,0,0,1,.59-1.31,2.255,2.255,0,0,1,1.62-.57,2.536,2.536,0,0,1,1.73.62,2,2,0,0,1,.72,1.58A1.689,1.689,0,0,1,3068.41,1063.7Zm-4.12.97a0.846,0.846,0,0,0,.19.51,1.22,1.22,0,0,0,.68.12h4.66a0.843,0.843,0,0,0,.4-0.07,0.374,0.374,0,0,0,.12-0.34v-0.1c-0.01-.03-0.01-0.07-0.02-0.11h0.17c0.05,0.14.1,0.31,0.16,0.52s0.1,0.34.13,0.42l0.14,0.46-0.03.01h-2.98a3.44,3.44,0,0,1,.51.53,1.516,1.516,0,0,1,.29.91,1.046,1.046,0,0,1-.66,1.05,2.3,2.3,0,0,1-.91.15h-1.98a1.225,1.225,0,0,0-.67.12,0.666,0.666,0,0,0-.2.47h-0.14v-2.06h0.14a0.87,0.87,0,0,0,.19.54,1.22,1.22,0,0,0,.68.12h1.96a1.62,1.62,0,0,0,.76-0.16,0.592,0.592,0,0,0,.3-0.58,1.167,1.167,0,0,0-.28-0.72,1,1,0,0,0-.35-0.35h-2.39a1.1,1.1,0,0,0-.68.13,0.827,0.827,0,0,0-.19.52h-0.14v-2.09h0.14Zm4.35,6.29h-3.1a1.3,1.3,0,0,0-.53.09,0.657,0.657,0,0,0-.37.65,1.028,1.028,0,0,0,.22.63,1.8,1.8,0,0,0,.33.36h2.66a0.65,0.65,0,0,0,.49-0.14,1.108,1.108,0,0,0,.14-0.57h0.16v1.53h-3.41a0.47,0.47,0,0,0-.57.61h-0.13c-0.05-.17-0.09-0.3-0.11-0.38s-0.07-.22-0.13-0.42q-0.045-.12-0.21-0.54c0-.02,0-0.03.02-0.03h0.83a3.483,3.483,0,0,1-.58-0.59,1.415,1.415,0,0,1-.29-0.86,1.154,1.154,0,0,1,1.29-1.15h2.52a0.684,0.684,0,0,0,.52-0.16,1.138,1.138,0,0,0,.12-0.45h0.13v1.42Zm-4.31,5.96a1.629,1.629,0,0,0,.18.77,0.959,0.959,0,0,0,.72.18h4.42a0.949,0.949,0,0,0,.7-0.18,1.314,1.314,0,0,0,.19-0.77h0.18v2.88h-0.18a1.339,1.339,0,0,0-.19-0.77,1.006,1.006,0,0,0-.7-0.17h-4.42a1.016,1.016,0,0,0-.72.17,1.667,1.667,0,0,0-.18.77h-0.18v-2.88h0.18Zm-0.04,3.27a0.762,0.762,0,0,0,.17.47,0.811,0.811,0,0,0,.57.13h2.47a1.131,1.131,0,0,0,.43-0.05,0.379,0.379,0,0,0,.18-0.37v-0.09c-0.01-.03-0.01-0.07-0.02-0.11h0.17c0.04,0.13.14,0.43,0.3,0.92l0.15,0.45a0.034,0.034,0,0,1-.02.04h-0.78a4.626,4.626,0,0,1,.57.69,1.4,1.4,0,0,1,.24.77,0.988,0.988,0,0,1-.19.59,1.523,1.523,0,0,1-1.32.51h-2.26a0.746,0.746,0,0,0-.5.14,0.558,0.558,0,0,0-.16.46h-0.14v-2.04h0.14a0.8,0.8,0,0,0,.19.49,1.015,1.015,0,0,0,.64.14h2.08a1.355,1.355,0,0,0,.69-0.16,0.57,0.57,0,0,0,.27-0.55,1,1,0,0,0-.19-0.57,3.679,3.679,0,0,0-.37-0.42h-2.72a0.587,0.587,0,0,0-.47.15,0.823,0.823,0,0,0-.12.49h-0.14v-2.08h0.14Zm4.29,7.64a1.57,1.57,0,0,1-.28.37h1.54a0.94,0.94,0,0,0,.41-0.07,0.335,0.335,0,0,0,.11-0.31,0.34,0.34,0,0,0-.01-0.1c0-.02-0.01-0.09-0.02-0.19h0.16l0.11,0.39c0.03,0.15.08,0.29,0.12,0.43s0.08,0.27.12,0.38c0.01,0.05.05,0.13,0.09,0.25l-0.01.03-0.51-.01c-0.18,0-.37-0.01-0.57-0.01s-0.39-.01-0.58-0.01h-3.96a0.923,0.923,0,0,0-.44.07,0.453,0.453,0,0,0-.13.41v0.1c0.01,0.04.01,0.07,0.02,0.11h-0.16c-0.01-.02-0.09-0.25-0.25-0.69l-0.28-.75,0.04-.03h0.6a2.323,2.323,0,0,1-.42-0.47,1.436,1.436,0,0,1-.22-0.8,1.588,1.588,0,0,1,.63-1.31,2.3,2.3,0,0,1,1.48-.5,2.82,2.82,0,0,1,1.81.6,1.819,1.819,0,0,1,.75,1.47A1.372,1.372,0,0,1,3068.58,1087.83Zm-3.78.14a0.637,0.637,0,0,0,.43.23h2.08a1.081,1.081,0,0,0,.89-0.34,1.057,1.057,0,0,0,.26-0.64,1.035,1.035,0,0,0-.54-0.93,2.448,2.448,0,0,0-1.34-.34,2.691,2.691,0,0,0-1.39.36,1.139,1.139,0,0,0-.61,1.06A0.885,0.885,0,0,0,3064.8,1087.97Zm-0.61,2.99a0.576,0.576,0,0,1,.4-0.16,0.546,0.546,0,0,1,.54.55,0.529,0.529,0,0,1-.54.53,0.568,0.568,0,0,1-.4-0.15,0.529,0.529,0,0,1-.16-0.38A0.535,0.535,0,0,1,3064.19,1090.96Zm-0.85,3.27a2.292,2.292,0,0,1-.61-0.74l0.2-.09a1.678,1.678,0,0,0,.56.63,1.205,1.205,0,0,0,.51.17,0.08,0.08,0,0,0,.09-0.04,0.292,0.292,0,0,0,.02-0.09l-0.03-.32a0.577,0.577,0,0,1,.13-0.37,0.472,0.472,0,0,1,.39-0.16,0.618,0.618,0,0,1,.37.13,0.537,0.537,0,0,1,.19.46,0.725,0.725,0,0,1-.24.53,0.916,0.916,0,0,1-.67.24A1.354,1.354,0,0,1,3063.34,1094.23Zm0.99,2.99a1.593,1.593,0,0,0,.18.77,0.959,0.959,0,0,0,.72.18h4.42a0.949,0.949,0,0,0,.7-0.18,1.289,1.289,0,0,0,.19-0.77h0.18v2.89h-0.18a1.289,1.289,0,0,0-.19-0.77,0.949,0.949,0,0,0-.7-0.18h-4.42a0.959,0.959,0,0,0-.72.18,1.593,1.593,0,0,0-.18.77h-0.18v-2.89h0.18Zm0,3.2a1.257,1.257,0,0,0,.28.78,1.916,1.916,0,0,0,1,.17h4.38l0.16-.13a1.186,1.186,0,0,0,.32-0.37,1.508,1.508,0,0,0,.07-0.45h0.18v1.66l-4.75,3.77h3.3a1.6,1.6,0,0,0,1.06-.24,1.171,1.171,0,0,0,.21-0.7h0.18v2.29h-0.18a1.092,1.092,0,0,0-.28-0.74,1.77,1.77,0,0,0-1-.18h-5.23v-0.17l5.45-4.31h-3.87a1.633,1.633,0,0,0-1.06.23,1.155,1.155,0,0,0-.22.68h-0.18v-2.29h0.18Zm6.35,11.62a4.3,4.3,0,0,0-.16.63,0.42,0.42,0,0,0,.08.26,0.4,0.4,0,0,0,.24.17v0.21l-2.23.09v-0.23a3.231,3.231,0,0,0,1.07-.51,1.936,1.936,0,0,0,.77-1.61,2.033,2.033,0,0,0-.83-1.67,3.544,3.544,0,0,0-2.27-.65,3.1,3.1,0,0,0-2.12.68,2.181,2.181,0,0,0-.79,1.73,2.77,2.77,0,0,0,.36,1.39,4.07,4.07,0,0,0,.63.81l-0.18.18a3.3,3.3,0,0,1-.73-0.8,3.389,3.389,0,0,1,.49-4.27,3.4,3.4,0,0,1,2.36-.86,3.446,3.446,0,0,1,2.43.9,3.216,3.216,0,0,1,1.04,2.47A3.77,3.77,0,0,1,3070.68,1112.04Zm-6.49,3.02a0.535,0.535,0,0,1,.4-0.16,0.492,0.492,0,0,1,.38.16,0.507,0.507,0,0,1,.16.38,0.546,0.546,0,0,1-.54.54,0.531,0.531,0,0,1-.56-0.54A0.529,0.529,0,0,1,3064.19,1115.06Zm-11.08-158.079h0.18a0.8,0.8,0,0,0,.29.564,8.3,8.3,0,0,0,1.34.644l4.88,2.031v0.194l-5.63,2.429a2.289,2.289,0,0,0-.69.387,0.968,0.968,0,0,0-.19.489h-0.18V961.24h0.18a2.108,2.108,0,0,0,.1.55,0.269,0.269,0,0,0,.27.124,1.235,1.235,0,0,0,.26-0.047,2.793,2.793,0,0,0,.38-0.133l0.96-.391v-2.569c-0.65-.253-1.05-0.4-1.19-0.453a1.131,1.131,0,0,0-.34-0.074,0.357,0.357,0,0,0-.35.2,1.511,1.511,0,0,0-.09.465h-0.18v-1.931Zm2.55,4.2,2.74-1.117-2.74-1.122v2.239Zm-2.41,2.9a1.144,1.144,0,0,0,.18.6,0.7,0.7,0,0,0,.54.157h4.74a1.285,1.285,0,0,0,.44-0.052,0.375,0.375,0,0,0,.2-0.386,0.747,0.747,0,0,0-.01-0.145c-0.01-.053-0.03-0.119-0.04-0.2h0.16c0.11,0.429.27,0.944,0.46,1.547a0.037,0.037,0,0,1-.03.041,0.716,0.716,0,0,1-.12.007h-5.82a0.765,0.765,0,0,0-.55.143,1.107,1.107,0,0,0-.15.59h-0.14v-2.3h0.14Zm0,2.709a1.14,1.14,0,0,0,.18.6,0.7,0.7,0,0,0,.54.157h4.74a1.285,1.285,0,0,0,.44-0.052,0.375,0.375,0,0,0,.2-0.386,0.747,0.747,0,0,0-.01-0.145c-0.01-.052-0.03-0.118-0.04-0.2h0.16c0.11,0.429.27,0.945,0.46,1.548a0.037,0.037,0,0,1-.03.04,0.619,0.619,0,0,1-.12.007h-5.82a0.765,0.765,0,0,0-.55.143,1.1,1.1,0,0,0-.15.59h-0.14v-2.3h0.14Zm0.04,5.054a1.073,1.073,0,0,0,.23.7,1.4,1.4,0,0,0,.78.137h4.31a1.033,1.033,0,0,0,.68-0.154,1.113,1.113,0,0,0,.21-0.683h0.18v2.7a4.039,4.039,0,0,1-.21,1.4,1.516,1.516,0,0,1-1.52,1.067,1.421,1.421,0,0,1-1.14-.474,2.586,2.586,0,0,1-.52-1.288l-2.52,2.009a1.287,1.287,0,0,0-.34.371,1.222,1.222,0,0,0-.14.477h-0.18v-1.571l3.06-2.438-0.02-.428h-1.96a0.993,0.993,0,0,0-.7.165,1.4,1.4,0,0,0-.2.716h-0.18v-2.708h0.18Zm3.45,3.332a1.209,1.209,0,0,0,1.22.776,1.182,1.182,0,0,0,1.18-.7,2.457,2.457,0,0,0,.17-0.986,1.167,1.167,0,0,0-.07-0.507,0.318,0.318,0,0,0-.28-0.093h-2.44A4.781,4.781,0,0,0,3056.74,975.171Zm-3.49,3.25a1.247,1.247,0,0,0,.17.643,1.131,1.131,0,0,0,.7.133h2.31a1.506,1.506,0,0,0,.44-0.043,0.291,0.291,0,0,0,.2-0.3,0.347,0.347,0,0,0-.01-0.1c-0.01-.033-0.03-0.129-0.08-0.288h0.15l0.07,0.2q0.27,0.834.42,1.162a0.6,0.6,0,0,1,.06.171,0.313,0.313,0,0,1-.08.01h-3.48a1.135,1.135,0,0,0-.69.13,0.9,0.9,0,0,0-.18.593h-0.14v-2.313h0.14Zm6.48,0.757a0.486,0.486,0,0,1,0,.7,0.46,0.46,0,0,1-.35.145,0.5,0.5,0,0,1-.36-0.145,0.486,0.486,0,0,1,0-.7,0.5,0.5,0,0,1,.36-0.143A0.5,0.5,0,0,1,3059.73,979.178Zm-4.47,2.663a1.517,1.517,0,0,1,.84-0.24,1.631,1.631,0,0,1,1.08.442,1.563,1.563,0,0,1,.5,1.252,2.1,2.1,0,0,1-.16.767,2.2,2.2,0,0,0-.17.8c0,0.066,0,.167.01,0.3v0.349h-0.39v-0.823a3.692,3.692,0,0,1-.35.134,2.013,2.013,0,0,1-.54.08,1.439,1.439,0,0,1-1.01-.449,1.612,1.612,0,0,1-.47-1.212,3.9,3.9,0,0,1,.05-0.428,0.616,0.616,0,0,0-.24-0.366,0.661,0.661,0,0,0-.39-0.229,0.321,0.321,0,0,0-.22.334,1.852,1.852,0,0,0-.05.486,6.6,6.6,0,0,1-.14,1.663,0.948,0.948,0,0,1-.98.72,1.376,1.376,0,0,1-1.23-.84,3.558,3.558,0,0,1-.45-1.7,2.074,2.074,0,0,1,.32-1.237,0.869,0.869,0,0,1,.68-0.457,0.581,0.581,0,0,1,.34.121,4.108,4.108,0,0,1,.5.476l0.28,0.313,0.06,0.057a1.291,1.291,0,0,1,.17-0.325,0.425,0.425,0,0,1,.34-0.19,0.674,0.674,0,0,1,.4.165,6.334,6.334,0,0,1,.7.7A1.256,1.256,0,0,1,3055.26,981.841Zm-3.61.5a3.258,3.258,0,0,0-.15,1.031,2.676,2.676,0,0,0,.27,1.285,0.814,0.814,0,0,0,.69.5,0.44,0.44,0,0,0,.43-0.4,5.1,5.1,0,0,0,.08-0.939c0-.118,0-0.242.01-0.372s0.01-.25.01-0.358c0.01-.07.02-0.183,0.04-0.339s0.05-.271.06-0.347a0.838,0.838,0,0,0-.3-0.278,1.01,1.01,0,0,0-.58-0.226A0.568,0.568,0,0,0,3051.65,982.345Zm3.33,1.512a1.008,1.008,0,0,0,.81.285,2.827,2.827,0,0,0,1.04-.23,0.793,0.793,0,0,0,.58-0.769,0.641,0.641,0,0,0-.45-0.643,1.7,1.7,0,0,0-.59-0.09,2.019,2.019,0,0,0-1.06.281,0.819,0.819,0,0,0-.47.728A0.7,0.7,0,0,0,3054.98,983.857Zm-1.73,2.041a0.829,0.829,0,0,0,.19.512,1.209,1.209,0,0,0,.68.121h4.66a0.9,0.9,0,0,0,.4-0.069,0.365,0.365,0,0,0,.13-0.336c0-.034-0.01-0.068-0.01-0.1s-0.01-.071-0.02-0.113h0.18q0.06,0.21.15,0.517c0.06,0.205.1,0.347,0.13,0.426l0.14,0.456-0.03.01h-2.98a3.229,3.229,0,0,1,.51.533,1.525,1.525,0,0,1,.3.9,1.044,1.044,0,0,1-.66,1.052,2.367,2.367,0,0,1-.92.152h-1.98a1.254,1.254,0,0,0-.67.116,0.705,0.705,0,0,0-.2.478h-0.14V988.5h0.14a0.851,0.851,0,0,0,.2.534,1.167,1.167,0,0,0,.67.119h1.96a1.659,1.659,0,0,0,.77-0.155,0.6,0.6,0,0,0,.29-0.583,1.159,1.159,0,0,0-.27-0.719,0.955,0.955,0,0,0-.36-0.347h-2.39a1.162,1.162,0,0,0-.68.124,0.927,0.927,0,0,0-.19.528h-0.14v-2.1h0.14Zm4.33,7.268h-0.35V992.2l-2.79-.01a1.926,1.926,0,0,0-.56.062,0.44,0.44,0,0,0-.33.447,0.49,0.49,0,0,0,.08.3,1.36,1.36,0,0,0,.26.289l-0.11.123-0.14-.1a1.47,1.47,0,0,1-.48-0.524,1.222,1.222,0,0,1-.14-0.533,0.749,0.749,0,0,1,.51-0.761,2.114,2.114,0,0,1,.76-0.11h2.94v-0.518a0.127,0.127,0,0,1,.03-0.036,0.077,0.077,0,0,1,.04-0.012,0.137,0.137,0,0,1,.08.022c0.01,0.013.06,0.059,0.12,0.135a3.428,3.428,0,0,0,.45.473c0.11,0.1.42,0.324,0.91,0.683a0.062,0.062,0,0,1-.08.086h-1.2v0.962Zm-2.94.737v0.157a2.6,2.6,0,0,0-.85.3,1.073,1.073,0,0,0-.54.973,0.748,0.748,0,0,0,.2.563,0.694,0.694,0,0,0,.52.207,0.72,0.72,0,0,0,.39-0.119,1.209,1.209,0,0,0,.37-0.419l0.31-.534a2.92,2.92,0,0,1,.65-0.86,1.122,1.122,0,0,1,.76-0.277,1.175,1.175,0,0,1,.9.38,1.372,1.372,0,0,1,.34.957,1.963,1.963,0,0,1-.09.555,2.045,2.045,0,0,0-.1.34,0.347,0.347,0,0,0,.02.124,0.307,0.307,0,0,0,.08.066v0.115l-1.35.033v-0.148a2.233,2.233,0,0,0,.73-0.257,0.951,0.951,0,0,0,.49-0.852,0.672,0.672,0,0,0-.21-0.523,0.7,0.7,0,0,0-.49-0.19,1,1,0,0,0-.8.657l-0.34.628a1.59,1.59,0,0,1-1.31,1.013,1.188,1.188,0,0,1-.94-0.42,1.631,1.631,0,0,1-.36-1.1,2.322,2.322,0,0,1,.1-0.647,3.11,3.11,0,0,0,.09-0.427,0.13,0.13,0,0,0-.04-0.1,0.311,0.311,0,0,0-.1-0.066V993.9h1.57Zm-1.35,5.83a1.048,1.048,0,0,0,.23.7,1.319,1.319,0,0,0,.78.14h4.31a1.056,1.056,0,0,0,.68-0.15,1.13,1.13,0,0,0,.21-0.687h0.18v2.7a4.109,4.109,0,0,1-.21,1.41,1.512,1.512,0,0,1-1.52,1.06,1.434,1.434,0,0,1-1.14-.47,2.621,2.621,0,0,1-.52-1.29l-2.52,2.01a1.272,1.272,0,0,0-.34.37,1.187,1.187,0,0,0-.14.48h-0.18v-1.57l3.06-2.44-0.02-.43h-1.96a1.055,1.055,0,0,0-.7.16,1.407,1.407,0,0,0-.2.72h-0.18v-2.707h0.18Zm3.45,3.327a1.207,1.207,0,0,0,1.22.78,1.183,1.183,0,0,0,1.18-.69,2.482,2.482,0,0,0,.17-0.99,1.2,1.2,0,0,0-.07-0.51,0.321,0.321,0,0,0-.28-0.09h-2.44A4.738,4.738,0,0,0,3056.74,1003.06Zm0.45,6.47a1.741,1.741,0,0,1-1.34.51v-3.02a2.62,2.62,0,0,0-1.64.49,1.407,1.407,0,0,0-.51,1.08,1.377,1.377,0,0,0,.26.84,2.579,2.579,0,0,0,.76.63l-0.06.17a2.844,2.844,0,0,1-1.14-.73,1.82,1.82,0,0,1-.53-1.31,1.608,1.608,0,0,1,.69-1.39,2.715,2.715,0,0,1,1.59-.48,2.581,2.581,0,0,1,1.68.56,1.815,1.815,0,0,1,.71,1.48A1.674,1.674,0,0,1,3057.19,1009.53Zm-0.37-2.28a2.223,2.223,0,0,0-.66-0.22v2.01a1.873,1.873,0,0,0,.72-0.18,0.817,0.817,0,0,0,.43-0.78A0.923,0.923,0,0,0,3056.82,1007.25Zm-2.18,3.71v0.16a2.612,2.612,0,0,0-.85.29,1.08,1.08,0,0,0-.54.98,0.756,0.756,0,0,0,.2.56,0.686,0.686,0,0,0,.52.21,0.713,0.713,0,0,0,.39-0.12,1.2,1.2,0,0,0,.37-0.42l0.31-.54a3,3,0,0,1,.65-0.86,1.232,1.232,0,0,1,1.66.11,1.351,1.351,0,0,1,.34.95,1.973,1.973,0,0,1-.09.56,1.86,1.86,0,0,0-.1.34,0.287,0.287,0,0,0,.02.12,0.27,0.27,0,0,0,.08.07v0.11l-1.35.04v-0.15a2.119,2.119,0,0,0,.73-0.26,0.943,0.943,0,0,0,.49-0.85,0.656,0.656,0,0,0-.21-0.52,0.687,0.687,0,0,0-.49-0.19,1,1,0,0,0-.8.65l-0.34.63a1.579,1.579,0,0,1-1.31,1.01,1.188,1.188,0,0,1-.94-0.42,1.61,1.61,0,0,1-.36-1.09,2.289,2.289,0,0,1,.1-0.65,3.171,3.171,0,0,0,.09-0.43,0.128,0.128,0,0,0-.04-0.1,0.359,0.359,0,0,0-.1-0.07v-0.12h1.57Zm2.55,6.69a1.741,1.741,0,0,1-1.34.51v-3.03a2.681,2.681,0,0,0-1.64.5,1.407,1.407,0,0,0-.51,1.08,1.377,1.377,0,0,0,.26.84,2.579,2.579,0,0,0,.76.63l-0.06.17a2.844,2.844,0,0,1-1.14-.73,1.82,1.82,0,0,1-.53-1.31,1.608,1.608,0,0,1,.69-1.39,2.715,2.715,0,0,1,1.59-.48,2.581,2.581,0,0,1,1.68.56,1.815,1.815,0,0,1,.71,1.48A1.674,1.674,0,0,1,3057.19,1017.65Zm-0.37-2.28a2.223,2.223,0,0,0-.66-0.22v2.01a1.873,1.873,0,0,0,.72-0.18,0.817,0.817,0,0,0,.43-0.78A0.923,0.923,0,0,0,3056.82,1015.37Zm-3.55,3.24a1.117,1.117,0,0,0,.16.58,0.645,0.645,0,0,0,.51.15h2.18a1.9,1.9,0,0,0,.69-0.09,0.325,0.325,0,0,0,.21-0.32,0.832,0.832,0,0,0-.02-0.13,0.9,0.9,0,0,0-.03-0.16h0.16c0.07,0.18.13,0.36,0.2,0.55s0.12,0.32.15,0.4c0.06,0.15.13,0.32,0.2,0.49a0.034,0.034,0,0,1-.02.04h-0.9a3.835,3.835,0,0,1,.68.59,0.915,0.915,0,0,1,.24.59,0.551,0.551,0,0,1-.15.4,0.5,0.5,0,0,1-.37.15,0.479,0.479,0,0,1-.33-0.12,0.356,0.356,0,0,1-.14-0.29,0.546,0.546,0,0,1,.17-0.36,0.564,0.564,0,0,0,.17-0.29,0.649,0.649,0,0,0-.27-0.41,0.868,0.868,0,0,0-.57-0.24H3054a0.723,0.723,0,0,0-.58.19,0.941,0.941,0,0,0-.15.63h-0.16v-2.35h0.16Zm4.35,5.3h-0.15a1.4,1.4,0,0,0-.08-0.35,0.2,0.2,0,0,0-.21-0.1,0.605,0.605,0,0,0-.15.02c-0.05.01-.12,0.04-0.21,0.07l-2.44,1,2.15,0.85c0.11,0.04.22,0.08,0.34,0.12a1.315,1.315,0,0,0,.27.05,0.3,0.3,0,0,0,.27-0.17,0.977,0.977,0,0,0,.06-0.29h0.15v1.35h-0.15a0.473,0.473,0,0,0-.16-0.33,3.281,3.281,0,0,0-.64-0.3l-3.49-1.38a0.535,0.535,0,0,1-.13-0.06,0.078,0.078,0,0,1-.03-0.07,0.12,0.12,0,0,1,.05-0.08c0.04-.02.09-0.04,0.14-0.07l3.55-1.45a1.457,1.457,0,0,0,.59-0.38,0.716,0.716,0,0,0,.12-0.35h0.15v1.92Zm-0.43,6.19a1.772,1.772,0,0,1-1.34.5v-3.02a2.618,2.618,0,0,0-1.64.5,1.387,1.387,0,0,0-.51,1.07,1.356,1.356,0,0,0,.26.84,2.761,2.761,0,0,0,.76.64l-0.06.16a2.74,2.74,0,0,1-1.14-.73,1.787,1.787,0,0,1-.53-1.31,1.579,1.579,0,0,1,.69-1.38,2.654,2.654,0,0,1,1.59-.49,2.589,2.589,0,0,1,1.68.57,1.809,1.809,0,0,1,.71,1.47A1.7,1.7,0,0,1,3057.19,1030.1Zm-0.37-2.28a1.97,1.97,0,0,0-.66-0.22v2.01a2.33,2.33,0,0,0,.72-0.18,0.837,0.837,0,0,0,.43-0.78A0.923,0.923,0,0,0,3056.82,1027.82Zm0.72,6.14a1.57,1.57,0,0,1-.28.37h1.54a0.811,0.811,0,0,0,.41-0.07,0.326,0.326,0,0,0,.11-0.3,0.308,0.308,0,0,0-.01-0.1,1.767,1.767,0,0,0-.01-0.19h0.16l0.1,0.39c0.04,0.14.08,0.28,0.12,0.43s0.08,0.26.12,0.37c0.02,0.05.05,0.14,0.09,0.26l-0.01.02-0.51-.01c-0.18,0-.37,0-0.57-0.01h-0.58l-3.96-.01a0.9,0.9,0,0,0-.44.08,0.431,0.431,0,0,0-.13.4v0.11c0.01,0.03.01,0.07,0.02,0.1h-0.16c-0.01-.02-0.09-0.25-0.25-0.69l-0.28-.75,0.04-.03h0.6a2.319,2.319,0,0,1-.42-0.46,1.447,1.447,0,0,1-.22-0.81,1.583,1.583,0,0,1,.64-1.31,2.315,2.315,0,0,1,1.47-.5,2.82,2.82,0,0,1,1.81.6,1.824,1.824,0,0,1,.75,1.48A1.332,1.332,0,0,1,3057.54,1033.96Zm-3.77.14a0.6,0.6,0,0,0,.42.23h2.08a1.065,1.065,0,0,0,.89-0.33,1.083,1.083,0,0,0,.26-0.65,1.035,1.035,0,0,0-.54-0.93,2.523,2.523,0,0,0-1.33-.33,2.824,2.824,0,0,0-1.4.35,1.167,1.167,0,0,0-.61,1.06A0.814,0.814,0,0,0,3053.77,1034.1Zm-0.61,2.99a0.561,0.561,0,0,1,.39-0.15,0.54,0.54,0,1,1-.39.92,0.5,0.5,0,0,1-.17-0.38A0.538,0.538,0,0,1,3053.16,1037.09Z" transform="translate(-3050.94 -956.969)"/>
</svg>
